<svg width="239" height="36" viewBox="0 0 239 36" fill="none" xmlns="http://www.w3.org/2000/svg">
<path d="M1.16 26.38C1.904 22.804 2.276 19.096 2.276 15.256C2.276 11.416 1.976 7.528 1.376 3.592C4.64 2.68 7.532 2.224 10.052 2.224C13.796 2.224 16.64 3.208 18.584 5.176C20.552 7.12 21.536 10.084 21.536 14.068C21.536 18.052 20.42 21.412 18.188 24.148C15.98 26.86 12.908 28.216 8.972 28.216C6.284 28.216 3.68 27.604 1.16 26.38ZM6.74 5.86C6.524 8.788 6.416 11.632 6.416 14.392C6.416 17.128 6.548 20.44 6.812 24.328C7.796 24.664 8.9 24.832 10.124 24.832C11.348 24.832 12.404 24.556 13.292 24.004C14.204 23.428 14.9 22.648 15.38 21.664C16.316 19.792 16.784 17.5 16.784 14.788C16.784 12.172 16.28 10.012 15.272 8.308C14.168 6.388 12.452 5.428 10.124 5.428C8.852 5.428 7.724 5.572 6.74 5.86ZM30.005 10L35.369 9.892C36.209 9.892 36.821 10.06 37.205 10.396C37.589 10.732 37.781 11.26 37.781 11.98C37.781 12.676 37.373 13.516 36.557 14.5C35.765 15.484 34.841 16.444 33.785 17.38C32.753 18.292 31.673 19.396 30.545 20.692C29.441 21.988 28.649 23.176 28.169 24.256C29.033 24.4 30.077 24.472 31.301 24.472C34.037 24.472 36.041 24.1 37.313 23.356C37.625 23.98 37.781 24.688 37.781 25.48C37.781 26.272 37.505 26.932 36.953 27.46C36.401 27.964 35.717 28.216 34.901 28.216C34.109 28.216 32.897 28.132 31.265 27.964C29.657 27.772 28.409 27.676 27.521 27.676C26.633 27.676 25.325 27.784 23.597 28C23.309 27.52 23.165 26.956 23.165 26.308C23.165 25.228 23.885 23.812 25.325 22.06C26.765 20.284 28.373 18.496 30.149 16.696C31.925 14.872 33.017 13.564 33.425 12.772C33.065 12.844 32.489 12.976 31.697 13.168C30.905 13.336 30.281 13.468 29.825 13.564C28.625 13.828 27.521 13.96 26.513 13.96C25.505 13.96 24.725 13.744 24.173 13.312C23.645 12.856 23.381 12.22 23.381 11.404C23.381 10.564 23.537 9.916 23.849 9.46C25.385 9.82 27.437 10 30.005 10ZM51.6196 2.008C53.7076 2.008 55.5316 2.62 57.0916 3.844C58.6516 5.068 59.4316 6.652 59.4316 8.596C59.4316 9.628 59.1436 10.48 58.5676 11.152C57.9916 11.824 57.2836 12.16 56.4436 12.16C55.6036 12.16 54.9316 12.052 54.4276 11.836C54.4996 11.452 54.5356 11.044 54.5356 10.612C54.5116 9.1 54.1396 7.876 53.4196 6.94C52.6996 5.98 51.6436 5.5 50.2516 5.5C48.8836 5.5 47.6116 5.944 46.4356 6.832C45.7396 7.84 45.1996 9.16 44.8156 10.792C44.4316 12.424 44.2396 14.032 44.2396 15.616C44.2396 18.256 44.7436 20.476 45.7516 22.276C46.7836 24.052 48.3796 24.94 50.5396 24.94C52.5316 24.94 53.8756 24.184 54.5716 22.672C55.2196 21.352 55.5436 19.6 55.5436 17.416C56.7676 17.416 57.7876 17.644 58.6036 18.1C59.4196 18.532 59.8276 19.252 59.8276 20.26C59.8276 22.612 58.7956 24.568 56.7316 26.128C54.6676 27.664 52.3396 28.432 49.7476 28.432C46.3636 28.432 43.7956 27.316 42.0436 25.084C40.2916 22.828 39.4156 19.78 39.4156 15.94C39.4156 12.1 40.5076 8.824 42.6916 6.112C44.8996 3.376 47.8756 2.008 51.6196 2.008ZM68.9826 28.432C66.3426 28.432 64.3986 27.664 63.1506 26.128C61.9026 24.568 61.2786 22.408 61.2786 19.648C61.2786 16.864 62.1066 14.452 63.7626 12.412C65.4186 10.372 67.5426 9.352 70.1346 9.352C75.4626 9.352 78.1266 12.352 78.1266 18.352C78.1266 21.16 77.2626 23.548 75.5346 25.516C73.8066 27.46 71.6226 28.432 68.9826 28.432ZM66.3906 13.312C65.9586 14.704 65.7426 16.096 65.7426 17.488C65.7426 18.88 65.7906 19.96 65.8866 20.728C65.9826 21.496 66.1626 22.264 66.4266 23.032C66.9786 24.592 68.0586 25.372 69.6666 25.372C71.2986 25.372 72.3666 24.94 72.8706 24.076C73.3986 23.212 73.6626 21.88 73.6626 20.08C73.6626 14.968 72.4506 12.412 70.0266 12.412C68.6346 12.412 67.4226 12.712 66.3906 13.312ZM97.7339 13.456L97.3739 21.376C97.3739 23.56 97.7099 25.696 98.3819 27.784C97.7099 28.072 96.9419 28.216 96.0779 28.216C94.0379 28.216 93.0179 27.076 93.0179 24.796C93.0179 23.764 93.1499 22.036 93.4139 19.612C93.6779 17.164 93.8099 15.628 93.8099 15.004C93.8099 13.804 93.2699 13.204 92.1899 13.204C91.3979 13.204 90.4979 13.78 89.4899 14.932C88.5059 16.06 87.6539 17.332 86.9339 18.748C86.2379 20.14 85.8299 21.292 85.7099 22.204C85.8059 24.076 86.0459 25.864 86.4299 27.568C85.6619 27.856 84.8579 28 84.0179 28C83.2019 28 82.5299 27.808 82.0019 27.424C81.4979 27.016 81.2459 26.464 81.2459 25.768C81.2459 25.048 81.3539 23.776 81.5699 21.952C81.7859 20.104 81.8939 18.28 81.8939 16.48C81.8939 14.656 81.6179 12.568 81.0659 10.216C81.8339 9.928 82.6499 9.784 83.5139 9.784C84.3779 9.784 85.0739 10.036 85.6019 10.54C86.1539 11.044 86.4299 11.668 86.4299 12.412C86.4299 13.156 86.3339 14.344 86.1419 15.976C87.0539 14.272 88.2419 12.784 89.7059 11.512C91.1699 10.216 92.6339 9.568 94.0979 9.568C96.5219 9.568 97.7339 10.864 97.7339 13.456ZM103.924 22.132C103.924 21.7 103.816 18.892 103.6 13.708C102.424 13.78 101.488 13.984 100.792 14.32C100.504 13.792 100.36 13.24 100.36 12.664C100.36 12.088 100.564 11.62 100.972 11.26C101.38 10.876 101.86 10.684 102.412 10.684C102.964 10.684 103.36 10.696 103.6 10.72C103.72 8.008 104.644 5.716 106.372 3.844C108.1 1.948 110.272 0.999998 112.888 0.999998C114.352 0.999998 115.588 1.312 116.596 1.936C117.604 2.56 118.108 3.484 118.108 4.708C118.108 5.572 117.784 6.304 117.136 6.904C116.488 7.504 115.72 7.804 114.832 7.804C114.64 7.804 114.4 7.78 114.112 7.732C114.184 7.42 114.22 7.144 114.22 6.904C114.22 6.064 114.04 5.392 113.68 4.888C113.32 4.36 112.684 4.096 111.772 4.096C110.86 4.096 110.02 4.36 109.252 4.888C108.772 5.536 108.388 6.436 108.1 7.588C107.812 8.74 107.668 9.868 107.668 10.972H108.496C110.08 10.972 111.964 10.72 114.148 10.216C114.436 10.696 114.58 11.272 114.58 11.944C114.58 12.592 114.304 13.132 113.752 13.564C113.2 13.996 112.504 14.212 111.664 14.212C111.64 14.212 110.284 14.044 107.596 13.708L107.956 32.428C107.956 33.988 107.032 34.768 105.184 34.768C104.56 34.768 103.744 34.624 102.736 34.336C103.528 31.192 103.924 27.124 103.924 22.132ZM119.249 19.828C119.249 21.556 119.525 22.924 120.077 23.932C120.629 24.916 121.553 25.408 122.849 25.408C124.145 25.408 125.153 24.976 125.873 24.112C126.617 23.224 126.989 22.156 126.989 20.908C127.805 20.908 128.513 21.112 129.113 21.52C129.713 21.928 130.013 22.492 130.013 23.212C130.013 24.7 129.221 25.948 127.637 26.956C126.053 27.94 124.385 28.432 122.633 28.432C119.897 28.432 117.917 27.7 116.693 26.236C115.469 24.748 114.857 22.552 114.857 19.648C114.857 16.744 115.673 14.308 117.305 12.34C118.961 10.348 121.157 9.352 123.893 9.352C125.765 9.352 127.265 9.784 128.393 10.648C129.545 11.488 130.121 12.808 130.121 14.608C130.121 16.384 129.305 17.728 127.673 18.64C126.065 19.528 124.097 19.972 121.769 19.972C120.953 19.972 120.113 19.924 119.249 19.828ZM119.285 16.984C120.005 17.128 120.761 17.2 121.553 17.2C123.281 17.2 124.733 16.876 125.909 16.228C126.053 15.652 126.125 15.196 126.125 14.86C126.125 14.02 125.825 13.384 125.225 12.952C124.625 12.52 123.797 12.304 122.741 12.304C121.709 12.304 120.773 12.64 119.933 13.312C119.501 14.56 119.285 15.784 119.285 16.984ZM138.809 27.568C138.065 27.856 137.273 28 136.433 28C135.593 28 134.909 27.808 134.381 27.424C133.877 27.016 133.625 26.464 133.625 25.768C133.625 25.048 133.733 23.752 133.949 21.88C134.165 20.008 134.273 18.196 134.273 16.444C134.273 14.668 133.997 12.592 133.445 10.216C134.213 9.928 134.969 9.784 135.713 9.784C136.457 9.784 137.093 10.036 137.621 10.54C138.173 11.044 138.449 11.716 138.449 12.556C138.449 12.988 138.377 13.636 138.233 14.5C138.089 15.34 138.005 15.976 137.981 16.408C138.917 14.272 140.021 12.604 141.293 11.404C142.589 10.18 143.873 9.568 145.145 9.568C146.033 9.568 146.741 9.88 147.269 10.504C147.797 11.128 148.061 11.92 148.061 12.88C148.061 13.816 147.821 14.584 147.341 15.184C146.861 15.76 146.261 16.048 145.541 16.048C144.845 16.048 144.281 15.976 143.849 15.832C143.921 15.544 143.957 15.28 143.957 15.04C143.957 14.056 143.609 13.564 142.913 13.564C141.857 13.564 140.861 14.632 139.925 16.768C139.013 18.88 138.401 20.86 138.089 22.708C138.209 24.508 138.449 26.128 138.809 27.568ZM153.21 19.828C153.21 21.556 153.486 22.924 154.038 23.932C154.59 24.916 155.514 25.408 156.81 25.408C158.106 25.408 159.114 24.976 159.834 24.112C160.578 23.224 160.95 22.156 160.95 20.908C161.766 20.908 162.474 21.112 163.074 21.52C163.674 21.928 163.974 22.492 163.974 23.212C163.974 24.7 163.182 25.948 161.598 26.956C160.014 27.94 158.346 28.432 156.594 28.432C153.858 28.432 151.878 27.7 150.654 26.236C149.43 24.748 148.818 22.552 148.818 19.648C148.818 16.744 149.634 14.308 151.266 12.34C152.922 10.348 155.118 9.352 157.854 9.352C159.726 9.352 161.226 9.784 162.354 10.648C163.506 11.488 164.082 12.808 164.082 14.608C164.082 16.384 163.266 17.728 161.634 18.64C160.026 19.528 158.058 19.972 155.73 19.972C154.914 19.972 154.074 19.924 153.21 19.828ZM153.246 16.984C153.966 17.128 154.722 17.2 155.514 17.2C157.242 17.2 158.694 16.876 159.87 16.228C160.014 15.652 160.086 15.196 160.086 14.86C160.086 14.02 159.786 13.384 159.186 12.952C158.586 12.52 157.758 12.304 156.702 12.304C155.67 12.304 154.734 12.64 153.894 13.312C153.462 14.56 153.246 15.784 153.246 16.984ZM184.253 13.456L183.893 21.376C183.893 23.56 184.229 25.696 184.901 27.784C184.229 28.072 183.461 28.216 182.597 28.216C180.557 28.216 179.537 27.076 179.537 24.796C179.537 23.764 179.669 22.036 179.933 19.612C180.197 17.164 180.329 15.628 180.329 15.004C180.329 13.804 179.789 13.204 178.709 13.204C177.917 13.204 177.017 13.78 176.009 14.932C175.025 16.06 174.173 17.332 173.453 18.748C172.757 20.14 172.349 21.292 172.229 22.204C172.325 24.076 172.565 25.864 172.949 27.568C172.181 27.856 171.377 28 170.537 28C169.721 28 169.049 27.808 168.521 27.424C168.017 27.016 167.765 26.464 167.765 25.768C167.765 25.048 167.873 23.776 168.089 21.952C168.305 20.104 168.413 18.28 168.413 16.48C168.413 14.656 168.137 12.568 167.585 10.216C168.353 9.928 169.169 9.784 170.033 9.784C170.897 9.784 171.593 10.036 172.121 10.54C172.673 11.044 172.949 11.668 172.949 12.412C172.949 13.156 172.853 14.344 172.661 15.976C173.573 14.272 174.761 12.784 176.225 11.512C177.689 10.216 179.153 9.568 180.617 9.568C183.041 9.568 184.253 10.864 184.253 13.456ZM195.735 28.432C193.167 28.432 191.199 27.748 189.831 26.38C188.463 25.012 187.779 23.044 187.779 20.476C187.779 17.356 188.655 14.728 190.407 12.592C192.159 10.432 194.487 9.352 197.391 9.352C199.047 9.352 200.391 9.688 201.423 10.36C202.455 11.008 202.971 11.98 202.971 13.276C202.971 14.116 202.635 14.872 201.963 15.544C201.291 16.192 200.535 16.516 199.695 16.516C199.503 16.516 199.263 16.492 198.975 16.444C199.047 16.132 199.083 15.856 199.083 15.616C199.083 14.752 198.855 14.02 198.399 13.42C197.943 12.82 197.187 12.52 196.131 12.52C195.075 12.52 194.091 12.952 193.179 13.816C192.531 15.496 192.207 17.596 192.207 20.116C192.207 23.548 193.503 25.264 196.095 25.264C197.487 25.264 198.519 24.82 199.191 23.932C199.887 23.02 200.235 22 200.235 20.872C201.051 20.872 201.759 21.076 202.359 21.484C202.959 21.892 203.259 22.456 203.259 23.176C203.259 24.736 202.455 26.008 200.847 26.992C199.263 27.952 197.559 28.432 195.735 28.432ZM209.671 19.828C209.671 21.556 209.947 22.924 210.499 23.932C211.051 24.916 211.975 25.408 213.271 25.408C214.567 25.408 215.575 24.976 216.295 24.112C217.039 23.224 217.411 22.156 217.411 20.908C218.227 20.908 218.935 21.112 219.535 21.52C220.135 21.928 220.435 22.492 220.435 23.212C220.435 24.7 219.643 25.948 218.059 26.956C216.475 27.94 214.807 28.432 213.055 28.432C210.319 28.432 208.339 27.7 207.115 26.236C205.891 24.748 205.279 22.552 205.279 19.648C205.279 16.744 206.095 14.308 207.727 12.34C209.383 10.348 211.579 9.352 214.315 9.352C216.187 9.352 217.687 9.784 218.815 10.648C219.967 11.488 220.543 12.808 220.543 14.608C220.543 16.384 219.727 17.728 218.095 18.64C216.487 19.528 214.519 19.972 212.191 19.972C211.375 19.972 210.535 19.924 209.671 19.828ZM209.707 16.984C210.427 17.128 211.183 17.2 211.975 17.2C213.703 17.2 215.155 16.876 216.331 16.228C216.475 15.652 216.547 15.196 216.547 14.86C216.547 14.02 216.247 13.384 215.647 12.952C215.047 12.52 214.219 12.304 213.163 12.304C212.131 12.304 211.195 12.64 210.355 13.312C209.923 14.56 209.707 15.784 209.707 16.984ZM227.142 21.448C227.07 21.784 227.034 22.06 227.034 22.276C227.034 23.26 227.322 24.016 227.898 24.544C228.498 25.072 229.29 25.336 230.274 25.336C231.282 25.336 232.11 25.156 232.758 24.796C233.43 24.412 233.766 23.848 233.766 23.104C233.766 22.36 233.406 21.772 232.686 21.34C231.99 20.884 231.138 20.524 230.13 20.26C229.146 19.996 228.15 19.708 227.142 19.396C226.134 19.06 225.27 18.544 224.55 17.848C223.854 17.152 223.506 16.276 223.506 15.22C223.506 13.564 224.382 12.172 226.134 11.044C227.886 9.916 229.722 9.352 231.642 9.352C233.754 9.352 235.362 9.784 236.466 10.648C237.114 11.152 237.438 11.824 237.438 12.664C237.438 13.48 237.114 14.152 236.466 14.68C235.842 15.184 235.074 15.436 234.162 15.436C233.97 15.436 233.73 15.412 233.442 15.364C233.514 15.052 233.55 14.776 233.55 14.536C233.55 13.84 233.286 13.312 232.758 12.952C232.23 12.592 231.51 12.412 230.598 12.412C229.71 12.412 228.894 12.592 228.15 12.952C227.862 13.336 227.718 13.828 227.718 14.428C227.718 15.028 228.066 15.52 228.762 15.904C229.458 16.264 230.298 16.588 231.282 16.876C232.29 17.14 233.298 17.452 234.306 17.812C235.314 18.148 236.166 18.688 236.862 19.432C237.558 20.152 237.906 21.064 237.906 22.168C237.906 23.968 237.006 25.468 235.206 26.668C233.43 27.844 231.594 28.432 229.698 28.432C227.802 28.432 226.23 28.096 224.982 27.424C223.758 26.728 223.146 25.684 223.146 24.292C223.146 23.428 223.458 22.732 224.082 22.204C224.73 21.652 225.51 21.376 226.422 21.376C226.614 21.376 226.854 21.4 227.142 21.448Z" fill="white"/>
<path d="M1.16 26.38L0.180965 26.1763L0.0222627 26.9391L0.723096 27.2795L1.16 26.38ZM1.376 3.592L1.1069 2.62889L0.253961 2.86721L0.38742 3.7427L1.376 3.592ZM18.584 5.176L17.8725 5.87881L17.8812 5.88743L18.584 5.176ZM18.188 24.148L17.4131 23.5159L17.4125 23.5166L18.188 24.148ZM6.74 5.86L6.4591 4.90026L5.79372 5.09501L5.74271 5.78643L6.74 5.86ZM6.812 24.328L5.8143 24.3957L5.85936 25.0594L6.48886 25.2743L6.812 24.328ZM13.292 24.004L13.8199 24.8533L13.826 24.8495L13.292 24.004ZM15.38 21.664L14.4855 21.2168L14.4812 21.2256L15.38 21.664ZM15.272 8.308L14.405 8.80651L14.4113 8.81714L15.272 8.308ZM2.13904 26.5837C2.89767 22.9374 3.276 19.1609 3.276 15.256H1.276C1.276 19.0311 0.910331 22.6706 0.180965 26.1763L2.13904 26.5837ZM3.276 15.256C3.276 11.3637 2.9719 7.42535 2.36458 3.4413L0.38742 3.7427C0.980096 7.63065 1.276 11.4683 1.276 15.256H3.276ZM1.6451 4.55511C4.84954 3.65975 7.64809 3.224 10.052 3.224V1.224C7.41591 1.224 4.43046 1.70025 1.1069 2.62889L1.6451 4.55511ZM10.052 3.224C13.6259 3.224 16.1753 4.1605 17.8726 5.87876L19.2954 4.47324C17.1047 2.2555 13.9661 1.224 10.052 1.224V3.224ZM17.8812 5.88743C19.5887 7.5741 20.536 10.233 20.536 14.068H22.536C22.536 9.93505 21.5153 6.66589 19.2868 4.46457L17.8812 5.88743ZM20.536 14.068C20.536 17.8529 19.4809 20.9812 17.4131 23.5159L18.9629 24.7801C21.3591 21.8428 22.536 18.251 22.536 14.068H20.536ZM17.4125 23.5166C15.4198 25.9642 12.6499 27.216 8.972 27.216V29.216C13.1661 29.216 16.5402 27.7558 18.9635 24.7794L17.4125 23.5166ZM8.972 27.216C6.4418 27.216 3.98667 26.6412 1.5969 25.4805L0.723096 27.2795C3.37333 28.5668 6.1262 29.216 8.972 29.216V27.216ZM5.74271 5.78643C5.52502 8.73737 5.416 11.606 5.416 14.392H7.416C7.416 11.658 7.52298 8.83863 7.73729 5.93357L5.74271 5.78643ZM5.416 14.392C5.416 17.1578 5.54935 20.4938 5.8143 24.3957L7.8097 24.2603C7.54665 20.3862 7.416 17.0982 7.416 14.392H5.416ZM6.48886 25.2743C7.59347 25.6515 8.80907 25.832 10.124 25.832V23.832C8.99093 23.832 7.99853 23.6765 7.13514 23.3816L6.48886 25.2743ZM10.124 25.832C11.5023 25.832 12.7481 25.5196 13.8199 24.8533L12.7641 23.1547C12.0599 23.5924 11.1937 23.832 10.124 23.832V25.832ZM13.826 24.8495C14.8975 24.1728 15.7186 23.2507 16.2788 22.1024L14.4812 21.2256C14.0814 22.0453 13.5105 22.6832 12.758 23.1585L13.826 24.8495ZM16.2744 22.1112C17.2973 20.0655 17.784 17.6109 17.784 14.788H15.784C15.784 17.3891 15.3347 19.5185 14.4856 21.2168L16.2744 22.1112ZM17.784 14.788C17.784 12.0488 17.2567 9.69895 16.1327 7.79886L14.4113 8.81714C15.3033 10.325 15.784 12.2952 15.784 14.788H17.784ZM16.1389 7.80953C14.8456 5.56025 12.7874 4.428 10.124 4.428V6.428C12.1166 6.428 13.4904 7.21575 14.4051 8.80647L16.1389 7.80953ZM10.124 4.428C8.77877 4.428 7.55317 4.58005 6.4591 4.90026L7.0209 6.81974C7.89483 6.56395 8.92523 6.428 10.124 6.428V4.428ZM30.005 10V11H30.0151L30.0251 10.9998L30.005 10ZM35.369 9.892V8.892H35.3589L35.3489 8.8922L35.369 9.892ZM36.557 14.5L35.7872 13.8617L35.7826 13.8673L35.778 13.873L36.557 14.5ZM33.785 17.38L34.4472 18.1293L34.4483 18.1283L33.785 17.38ZM30.545 20.692L29.7907 20.0354L29.7838 20.0435L30.545 20.692ZM28.169 24.256L27.2552 23.8499L26.7307 25.0301L28.0046 25.2424L28.169 24.256ZM37.313 23.356L38.2074 22.9088L37.7299 21.9537L36.8081 22.4928L37.313 23.356ZM36.953 27.46L37.6273 28.1985L37.6358 28.1907L37.6442 28.1826L36.953 27.46ZM31.265 27.964L31.1464 28.9569L31.1545 28.9579L31.1626 28.9587L31.265 27.964ZM23.597 28L22.7395 28.5145L23.0747 29.0731L23.721 28.9923L23.597 28ZM25.325 22.06L26.0976 22.695L26.1018 22.6898L25.325 22.06ZM30.149 16.696L30.8609 17.3984L30.8655 17.3936L30.149 16.696ZM33.425 12.772L34.314 13.23L35.2648 11.3842L33.2289 11.7914L33.425 12.772ZM31.697 13.168L31.9045 14.1462L31.9186 14.1432L31.9326 14.1398L31.697 13.168ZM29.825 13.564L29.619 12.5854L29.6101 12.5874L29.825 13.564ZM24.173 13.312L23.5194 14.0688L23.5377 14.0846L23.5567 14.0995L24.173 13.312ZM23.849 9.46L24.0772 8.48638L23.4104 8.33011L23.0237 8.89531L23.849 9.46ZM30.0251 10.9998L35.3891 10.8918L35.3489 8.8922L29.9849 9.0002L30.0251 10.9998ZM35.369 10.892C36.1128 10.892 36.4308 11.0473 36.5465 11.1486L37.8635 9.64342C37.2112 9.07265 36.3052 8.892 35.369 8.892V10.892ZM36.5465 11.1486C36.6357 11.2266 36.781 11.4258 36.781 11.98H38.781C38.781 11.0942 38.5423 10.2374 37.8635 9.64342L36.5465 11.1486ZM36.781 11.98C36.781 12.315 36.5642 12.9247 35.7872 13.8617L37.3268 15.1383C38.1818 14.1073 38.781 13.037 38.781 11.98H36.781ZM35.778 13.873C35.0249 14.8087 34.1406 15.7285 33.1217 16.6317L34.4483 18.1283C35.5414 17.1595 36.5051 16.1593 37.336 15.127L35.778 13.873ZM33.1228 16.6307C32.0513 17.5776 30.9407 18.7142 29.7907 20.0355L31.2993 21.3485C32.4053 20.0778 33.4547 19.0064 34.4472 18.1293L33.1228 16.6307ZM29.7838 20.0435C28.6424 21.3834 27.7872 22.6529 27.2552 23.8499L29.0828 24.6621C29.5109 23.6991 30.2396 22.5926 31.3062 21.3405L29.7838 20.0435ZM28.0046 25.2424C28.9395 25.3982 30.0418 25.472 31.301 25.472V23.472C30.1122 23.472 29.1265 23.4018 28.3334 23.2696L28.0046 25.2424ZM31.301 25.472C34.0858 25.472 36.3106 25.1008 37.8179 24.2192L36.8081 22.4928C35.7714 23.0992 33.9882 23.472 31.301 23.472V25.472ZM36.4186 23.8032C36.6523 24.2706 36.781 24.8221 36.781 25.48H38.781C38.781 24.5539 38.5977 23.6894 38.2074 22.9088L36.4186 23.8032ZM36.781 25.48C36.781 26.0104 36.6085 26.4057 36.2618 26.7374L37.6442 28.1826C38.4015 27.4583 38.781 26.5336 38.781 25.48H36.781ZM36.2787 26.7215C35.9285 27.0412 35.4923 27.216 34.901 27.216V29.216C35.9417 29.216 36.8735 28.8868 37.6273 28.1985L36.2787 26.7215ZM34.901 27.216C34.1629 27.216 32.9933 27.1366 31.3674 26.9693L31.1626 28.9587C32.8007 29.1274 34.0551 29.216 34.901 29.216V27.216ZM31.3836 26.9711C29.7626 26.7775 28.4684 26.676 27.521 26.676V28.676C28.3496 28.676 29.5514 28.7665 31.1464 28.9569L31.3836 26.9711ZM27.521 26.676C26.5689 26.676 25.211 26.7905 23.473 27.0077L23.721 28.9923C25.439 28.7775 26.6971 28.676 27.521 28.676V26.676ZM24.4545 27.4855C24.2736 27.184 24.165 26.8038 24.165 26.308H22.165C22.165 27.1082 22.3444 27.856 22.7395 28.5145L24.4545 27.4855ZM24.165 26.308C24.165 25.6066 24.6712 24.4304 26.0975 22.695L24.5525 21.425C23.0988 23.1936 22.165 24.8494 22.165 26.308H24.165ZM26.1018 22.6898C27.5193 20.9415 29.1053 19.1776 30.8608 17.3983L29.4372 15.9937C27.6407 17.8144 26.0107 19.6265 24.5482 21.4302L26.1018 22.6898ZM30.8655 17.3936C32.6269 15.5846 33.827 14.1752 34.314 13.23L32.536 12.314C32.207 12.9528 31.2231 14.1594 29.4325 15.9984L30.8655 17.3936ZM33.2289 11.7914C32.8475 11.8677 32.2547 12.0038 31.4614 12.1961L31.9326 14.1398C32.7233 13.9482 33.2825 13.8203 33.6211 13.7526L33.2289 11.7914ZM31.4895 12.1898C30.6977 12.3577 30.0743 12.4896 29.619 12.5854L30.031 14.5425C30.4877 14.4464 31.1123 14.3143 31.9045 14.1462L31.4895 12.1898ZM29.6101 12.5874C28.466 12.8391 27.4351 12.96 26.513 12.96V14.96C27.6069 14.96 28.784 14.8169 30.0399 14.5406L29.6101 12.5874ZM26.513 12.96C25.6334 12.96 25.1029 12.7699 24.7893 12.5245L23.5567 14.0995C24.3471 14.7181 25.3766 14.96 26.513 14.96V12.96ZM24.8266 12.5552C24.5567 12.3221 24.381 11.9839 24.381 11.404H22.381C22.381 12.4561 22.7333 13.3899 23.5194 14.0688L24.8266 12.5552ZM24.381 11.404C24.381 10.6674 24.5212 10.2485 24.6743 10.0247L23.0237 8.89531C22.5528 9.58349 22.381 10.4606 22.381 11.404H24.381ZM23.6208 10.4336C25.2634 10.8186 27.4017 11 30.005 11V9C27.4723 9 25.5066 8.82141 24.0772 8.48638L23.6208 10.4336ZM57.0916 3.844L56.4743 4.63074L56.4743 4.63074L57.0916 3.844ZM54.4276 11.836L53.4448 11.6517L53.2971 12.4394L54.0337 12.7551L54.4276 11.836ZM54.5356 10.612H55.5356V10.6041L55.5355 10.5961L54.5356 10.612ZM53.4196 6.94L52.6196 7.54004L52.627 7.54971L53.4196 6.94ZM46.4356 6.832L45.833 6.03396L45.7043 6.13112L45.6127 6.26381L46.4356 6.832ZM45.7516 22.276L44.8791 22.7646L44.883 22.7715L44.887 22.7784L45.7516 22.276ZM54.5716 22.672L53.674 22.2313L53.6685 22.2425L53.6632 22.2539L54.5716 22.672ZM55.5436 17.416V16.416H54.5436V17.416H55.5436ZM58.6036 18.1L58.1158 18.9729L58.1257 18.9785L58.1357 18.9838L58.6036 18.1ZM56.7316 26.128L57.3287 26.9303L57.3346 26.9258L56.7316 26.128ZM42.0436 25.084L41.2538 25.6974L41.257 25.7014L42.0436 25.084ZM42.6916 6.112L41.9134 5.48398L41.9128 5.48479L42.6916 6.112ZM51.6196 3.008C53.4965 3.008 55.1002 3.55257 56.4743 4.63074L57.7089 3.05726C55.963 1.68742 53.9187 1.008 51.6196 1.008V3.008ZM56.4743 4.63074C57.7984 5.6696 58.4316 6.9662 58.4316 8.596H60.4316C60.4316 6.3378 59.5049 4.4664 57.7089 3.05726L56.4743 4.63074ZM58.4316 8.596C58.4316 9.43112 58.2038 10.0399 57.8084 10.5012L59.3269 11.8028C60.0834 10.9201 60.4316 9.82488 60.4316 8.596H58.4316ZM57.8084 10.5012C57.4107 10.9651 56.9743 11.16 56.4436 11.16V13.16C57.593 13.16 58.5725 12.6829 59.3269 11.8028L57.8084 10.5012ZM56.4436 11.16C55.6743 11.16 55.1528 11.0588 54.8215 10.9169L54.0337 12.7551C54.7104 13.0452 55.533 13.16 56.4436 13.16V11.16ZM55.4105 12.0203C55.495 11.5695 55.5356 11.0994 55.5356 10.612H53.5356C53.5356 10.9886 53.5042 11.3345 53.4448 11.6517L55.4105 12.0203ZM55.5355 10.5961C55.509 8.92975 55.0961 7.47934 54.2123 6.33029L52.627 7.54971C53.1831 8.27266 53.5142 9.27025 53.5358 10.6279L55.5355 10.5961ZM54.2196 6.34C53.2789 5.08569 51.9012 4.5 50.2516 4.5V6.5C51.3861 6.5 52.1204 6.87431 52.6196 7.54L54.2196 6.34ZM50.2516 4.5C48.649 4.5 47.1683 5.02565 45.833 6.03396L47.0382 7.63004C48.0549 6.86235 49.1183 6.5 50.2516 6.5V4.5ZM45.6127 6.26381C44.825 7.40473 44.2449 8.85133 43.8422 10.563L45.789 11.021C46.1543 9.46867 46.6543 8.27527 47.2585 7.40019L45.6127 6.26381ZM43.8422 10.563C43.4416 12.2657 43.2396 13.9505 43.2396 15.616H45.2396C45.2396 14.1135 45.4217 12.5823 45.789 11.021L43.8422 10.563ZM43.2396 15.616C43.2396 18.3803 43.7673 20.7792 44.8791 22.7646L46.6241 21.7874C45.7199 20.1728 45.2396 18.1317 45.2396 15.616H43.2396ZM44.887 22.7784C46.109 24.8815 48.0459 25.94 50.5396 25.94V23.94C48.7134 23.94 47.4582 23.2225 46.6163 21.7736L44.887 22.7784ZM50.5396 25.94C51.6585 25.94 52.6727 25.7279 53.5319 25.2446C54.4024 24.7549 55.0513 24.0215 55.48 23.0901L53.6632 22.2539C53.396 22.8345 53.0249 23.2351 52.5514 23.5014C52.0665 23.7741 51.4128 23.94 50.5396 23.94V25.94ZM55.4693 23.1127C56.2093 21.6053 56.5436 19.6847 56.5436 17.416H54.5436C54.5436 19.5153 54.23 21.0987 53.674 22.2313L55.4693 23.1127ZM55.5436 18.416C56.6481 18.416 57.488 18.6221 58.1158 18.9729L59.0914 17.2271C58.0872 16.6659 56.8871 16.416 55.5436 16.416V18.416ZM58.1357 18.9838C58.3953 19.1212 58.5523 19.2817 58.6516 19.457C58.7537 19.6371 58.8276 19.8913 58.8276 20.26H60.8276C60.8276 19.6207 60.6976 19.0109 60.3916 18.471C60.083 17.9263 59.6279 17.5108 59.0715 17.2162L58.1357 18.9838ZM58.8276 20.26C58.8276 22.2641 57.9714 23.9374 56.1287 25.3302L57.3346 26.9258C59.6198 25.1986 60.8276 22.9599 60.8276 20.26H58.8276ZM56.1346 25.3258C54.2446 26.7323 52.1263 27.432 49.7476 27.432V29.432C52.553 29.432 55.0907 28.5957 57.3286 26.9302L56.1346 25.3258ZM49.7476 27.432C46.6046 27.432 44.3553 26.4094 42.8302 24.4666L41.257 25.7014C43.2359 28.2226 46.1227 29.432 49.7476 29.432V27.432ZM42.8334 24.4706C41.2579 22.4419 40.4156 19.6339 40.4156 15.94H38.4156C38.4156 19.9261 39.3253 23.2141 41.2538 25.6974L42.8334 24.4706ZM40.4156 15.94C40.4156 12.3032 41.4445 9.25498 43.4705 6.73921L41.9128 5.48479C39.5708 8.39301 38.4156 11.8968 38.4156 15.94H40.4156ZM43.4698 6.74002C45.4743 4.25626 48.1554 3.008 51.6196 3.008V1.008C47.5959 1.008 44.325 2.49573 41.9134 5.48398L43.4698 6.74002ZM63.1506 26.128L62.3697 26.7527L62.3745 26.7586L63.1506 26.128ZM63.7626 12.412L62.9862 11.7818L62.9862 11.7818L63.7626 12.412ZM75.5346 25.516L76.282 26.1804L76.286 26.1758L75.5346 25.516ZM66.3906 13.312L65.888 12.4475L65.551 12.6434L65.4355 13.0156L66.3906 13.312ZM65.8866 20.728L64.8943 20.852L64.8943 20.852L65.8866 20.728ZM66.4266 23.032L65.4809 23.3571L65.4839 23.3656L66.4266 23.032ZM72.8706 24.076L72.0173 23.5545L72.012 23.5633L72.0068 23.5721L72.8706 24.076ZM68.9826 27.432C66.5362 27.432 64.9261 26.7274 63.9267 25.4974L62.3745 26.7586C63.8711 28.6006 66.149 29.432 68.9826 29.432V27.432ZM63.9315 25.5033C62.8709 24.1776 62.2786 22.2666 62.2786 19.648H60.2786C60.2786 22.5494 60.9343 24.9584 62.3697 26.7527L63.9315 25.5033ZM62.2786 19.648C62.2786 17.0788 63.0367 14.8929 64.539 13.0422L62.9862 11.7818C61.1765 14.0111 60.2786 16.6492 60.2786 19.648H62.2786ZM64.539 13.0422C66.0081 11.2324 67.8486 10.352 70.1346 10.352V8.352C67.2365 8.352 64.8291 9.51157 62.9862 11.7818L64.539 13.0422ZM70.1346 10.352C72.6116 10.352 74.2956 11.0439 75.3809 12.266C76.4862 13.5107 77.1266 15.4788 77.1266 18.352H79.1266C79.1266 15.2252 78.435 12.6933 76.8763 10.938C75.2975 9.16009 72.9855 8.352 70.1346 8.352V10.352ZM77.1266 18.352C77.1266 20.9362 76.3388 23.0845 74.7832 24.8562L76.286 26.1758C78.1864 24.0115 79.1266 21.3838 79.1266 18.352H77.1266ZM74.7872 24.8516C73.2522 26.5785 71.3419 27.432 68.9826 27.432V29.432C71.9033 29.432 74.361 28.3415 76.282 26.1804L74.7872 24.8516ZM65.4355 13.0156C64.9752 14.499 64.7426 15.9909 64.7426 17.488H66.7426C66.7426 16.2011 66.942 14.909 67.3457 13.6084L65.4355 13.0156ZM64.7426 17.488C64.7426 18.8944 64.7906 20.0227 64.8943 20.852L66.8789 20.604C66.7905 19.8973 66.7426 18.8656 66.7426 17.488H64.7426ZM64.8943 20.852C64.9993 21.6918 65.1956 22.5271 65.4809 23.3571L67.3723 22.7069C67.1296 22.0009 66.9659 21.3002 66.8789 20.604L64.8943 20.852ZM65.4839 23.3656C65.8111 24.2905 66.3242 25.0626 67.0651 25.5977C67.8083 26.1345 68.6969 26.372 69.6666 26.372V24.372C69.0283 24.372 68.5728 24.2195 68.2361 23.9763C67.897 23.7314 67.594 23.3335 67.3693 22.6984L65.4839 23.3656ZM69.6666 26.372C71.4192 26.372 72.958 25.9108 73.7344 24.5799L72.0068 23.5721C71.7752 23.9692 71.178 24.372 69.6666 24.372V26.372ZM73.7239 24.5975C74.3966 23.4966 74.6626 21.94 74.6626 20.08H72.6626C72.6626 21.82 72.4006 22.9274 72.0173 23.5545L73.7239 24.5975ZM74.6626 20.08C74.6626 17.4767 74.359 15.3808 73.6572 13.9005C73.3 13.1472 72.8218 12.5156 72.1924 12.0732C71.5542 11.6245 70.8188 11.412 70.0266 11.412V13.412C70.4464 13.412 70.7715 13.519 71.0423 13.7093C71.3219 13.9059 71.6012 14.2327 71.85 14.7575C72.3601 15.8332 72.6626 17.5713 72.6626 20.08H74.6626ZM70.0266 11.412C68.4877 11.412 67.0963 11.745 65.888 12.4475L66.8932 14.1765C67.7488 13.679 68.7815 13.412 70.0266 13.412V11.412ZM97.7339 13.456L98.7329 13.5014L98.7339 13.4787V13.456H97.7339ZM97.3739 21.376L96.375 21.3306L96.3739 21.3533V21.376H97.3739ZM98.3819 27.784L98.7759 28.7031L99.6128 28.3444L99.3339 27.4776L98.3819 27.784ZM93.4139 19.612L94.4081 19.7203L94.4082 19.7192L93.4139 19.612ZM89.4899 14.932L88.7374 14.2735L88.7364 14.2746L89.4899 14.932ZM86.9339 18.748L86.0425 18.2947L86.0395 18.3008L86.9339 18.748ZM85.7099 22.204L84.7185 22.0735L84.7066 22.164L84.7113 22.2552L85.7099 22.204ZM86.4299 27.568L86.7811 28.5043L87.5971 28.1983L87.4055 27.3482L86.4299 27.568ZM82.0019 27.424L81.3727 28.2012L81.3928 28.2175L81.4138 28.2327L82.0019 27.424ZM81.5699 21.952L82.563 22.0696L82.5632 22.0681L81.5699 21.952ZM81.0659 10.216L80.7148 9.27967L79.8915 9.58842L80.0924 10.4445L81.0659 10.216ZM85.6019 10.54L84.9115 11.2634L84.9195 11.271L84.9277 11.2785L85.6019 10.54ZM86.1419 15.976L85.1488 15.8592L87.0236 16.4479L86.1419 15.976ZM89.7059 11.512L90.3618 12.2669L90.3688 12.2608L89.7059 11.512ZM96.735 13.4106L96.375 21.3306L98.3729 21.4214L98.7329 13.5014L96.735 13.4106ZM96.3739 21.376C96.3739 23.6645 96.7263 25.9038 97.43 28.0904L99.3339 27.4776C98.6936 25.4882 98.3739 23.4555 98.3739 21.376H96.3739ZM97.988 26.8649C97.461 27.0907 96.8308 27.216 96.0779 27.216V29.216C97.0531 29.216 97.9589 29.0533 98.7759 28.7031L97.988 26.8649ZM96.0779 27.216C95.2426 27.216 94.7908 26.9877 94.5282 26.6942C94.2466 26.3795 94.0179 25.8076 94.0179 24.796H92.0179C92.0179 26.0644 92.2993 27.2025 93.0377 28.0278C93.7951 28.8743 94.8732 29.216 96.0779 29.216V27.216ZM94.0179 24.796C94.0179 23.8236 94.1442 22.1434 94.4081 19.7203L92.4198 19.5037C92.1557 21.9286 92.0179 23.7044 92.0179 24.796H94.0179ZM94.4082 19.7192C94.6701 17.2908 94.8099 15.6938 94.8099 15.004H92.8099C92.8099 15.5622 92.6858 17.0372 92.4197 19.5048L94.4082 19.7192ZM94.8099 15.004C94.8099 14.2743 94.648 13.5404 94.1482 12.985C93.6304 12.4097 92.9129 12.204 92.1899 12.204V14.204C92.547 14.204 92.6395 14.2983 92.6616 14.323C92.7018 14.3676 92.8099 14.5337 92.8099 15.004H94.8099ZM92.1899 12.204C90.9335 12.204 89.7757 13.0868 88.7374 14.2735L90.2425 15.5905C91.2201 14.4732 91.8624 14.204 92.1899 14.204V12.204ZM88.7364 14.2746C87.695 15.4684 86.7976 16.8098 86.0426 18.2948L87.8253 19.2012C88.5102 17.8542 89.3169 16.6516 90.2435 15.5894L88.7364 14.2746ZM86.0395 18.3008C85.3232 19.7334 84.8596 21.0009 84.7185 22.0735L86.7014 22.3345C86.8003 21.5831 87.1527 20.5466 87.8284 19.1952L86.0395 18.3008ZM84.7113 22.2552C84.81 24.1799 85.057 26.0245 85.4544 27.7878L87.4055 27.3482C87.0348 25.7035 86.8019 23.9721 86.7086 22.1528L84.7113 22.2552ZM86.0788 26.6317C85.4258 26.8765 84.741 27 84.0179 27V29C84.9749 29 85.8981 28.8355 86.7811 28.5043L86.0788 26.6317ZM84.0179 27C83.3599 27 82.9085 26.8468 82.5901 26.6153L81.4138 28.2327C82.1513 28.7692 83.044 29 84.0179 29V27ZM82.6311 26.6468C82.3807 26.444 82.2459 26.1876 82.2459 25.768H80.2459C80.2459 26.7404 80.6152 27.588 81.3727 28.2012L82.6311 26.6468ZM82.2459 25.768C82.2459 25.1142 82.3467 23.8962 82.563 22.0696L80.5769 21.8344C80.3612 23.6558 80.2459 24.9818 80.2459 25.768H82.2459ZM82.5632 22.0681C82.7835 20.1828 82.8939 18.3201 82.8939 16.48H80.8939C80.8939 18.2399 80.7883 20.0252 80.5767 21.8359L82.5632 22.0681ZM82.8939 16.48C82.8939 14.5589 82.6038 12.3918 82.0395 9.98751L80.0924 10.4445C80.6321 12.7442 80.8939 14.7531 80.8939 16.48H82.8939ZM81.4171 11.1523C82.0669 10.9086 82.7634 10.784 83.5139 10.784V8.784C82.5365 8.784 81.601 8.94735 80.7148 9.27967L81.4171 11.1523ZM83.5139 10.784C84.1712 10.784 84.603 10.9689 84.9115 11.2634L86.2924 9.81664C85.5449 9.10308 84.5847 8.784 83.5139 8.784V10.784ZM84.9277 11.2785C85.2733 11.594 85.4299 11.9505 85.4299 12.412H87.4299C87.4299 11.3855 87.0346 10.494 86.2762 9.80151L84.9277 11.2785ZM85.4299 12.412C85.4299 13.093 85.3403 14.2311 85.1488 15.8592L87.1351 16.0928C87.3276 14.4569 87.4299 13.219 87.4299 12.412H85.4299ZM87.0236 16.4479C87.878 14.8515 88.9893 13.4593 90.3618 12.2669L89.0501 10.7571C87.4945 12.1087 86.2299 13.6925 85.2603 15.5041L87.0236 16.4479ZM90.3688 12.2608C91.7121 11.0716 92.9501 10.568 94.0979 10.568V8.568C92.3178 8.568 90.6277 9.36044 89.0431 10.7632L90.3688 12.2608ZM94.0979 10.568C95.138 10.568 95.739 10.8429 96.0946 11.223C96.4619 11.6158 96.7339 12.2981 96.7339 13.456H98.7339C98.7339 12.0219 98.4 10.7602 97.5553 9.85696C96.6989 8.94114 95.4819 8.568 94.0979 8.568V10.568ZM103.6 13.708L104.599 13.6664L104.556 12.6476L103.539 12.7099L103.6 13.708ZM100.792 14.32L99.9138 14.7989L100.369 15.6343L101.226 15.2206L100.792 14.32ZM100.972 11.26L101.633 12.0098L101.645 11.9992L101.657 11.9882L100.972 11.26ZM103.6 10.72L103.5 11.715L104.552 11.8202L104.599 10.7642L103.6 10.72ZM106.372 3.844L107.107 4.52229L107.111 4.5176L106.372 3.844ZM117.136 6.904L116.456 6.17024L116.456 6.17024L117.136 6.904ZM114.112 7.732L113.137 7.50714L112.898 8.54354L113.947 8.71839L114.112 7.732ZM113.68 4.888L112.853 5.45134L112.86 5.46036L112.866 5.46924L113.68 4.888ZM109.252 4.888L108.685 4.06396L108.548 4.15857L108.448 4.29277L109.252 4.888ZM108.1 7.588L109.07 7.83053L109.07 7.83053L108.1 7.588ZM107.668 10.972H106.668V11.972H107.668V10.972ZM114.148 10.216L115.005 9.7015L114.631 9.07815L113.923 9.24161L114.148 10.216ZM107.596 13.708L107.72 12.7157L106.574 12.5725L106.596 13.7272L107.596 13.708ZM107.956 32.428H108.956V32.4184L108.956 32.4088L107.956 32.428ZM102.736 34.336L101.766 34.0917L101.529 35.0313L102.461 35.2975L102.736 34.336ZM104.924 22.132C104.924 21.6726 104.814 18.8308 104.599 13.6664L102.601 13.7496C102.817 18.9532 102.924 21.7274 102.924 22.132H104.924ZM103.539 12.7099C102.294 12.7861 101.215 13.0053 100.357 13.4194L101.226 15.2206C101.761 14.9627 102.553 14.7739 103.661 14.7061L103.539 12.7099ZM101.67 13.8411C101.458 13.4533 101.36 13.0652 101.36 12.664H99.3597C99.3597 13.4148 99.5493 14.1307 99.9138 14.7989L101.67 13.8411ZM101.36 12.664C101.36 12.3559 101.454 12.1678 101.633 12.0098L100.31 10.5102C99.673 11.0722 99.3597 11.8201 99.3597 12.664H101.36ZM101.657 11.9882C101.883 11.7759 102.119 11.684 102.412 11.684V9.684C101.601 9.684 100.877 9.97613 100.286 10.5318L101.657 11.9882ZM102.412 11.684C102.962 11.684 103.314 11.6964 103.5 11.715L103.699 9.72496C103.405 9.69557 102.966 9.684 102.412 9.684V11.684ZM104.599 10.7642C104.709 8.27141 105.55 6.20883 107.106 4.52228L105.637 3.16572C103.738 5.22316 102.73 7.74459 102.601 10.6758L104.599 10.7642ZM107.111 4.5176C108.645 2.83415 110.547 2 112.888 2V-2.14577e-06C109.997 -2.14577e-06 107.554 1.06185 105.633 3.1704L107.111 4.5176ZM112.888 2C114.209 2 115.253 2.28081 116.069 2.78626L117.122 1.08573C115.923 0.34319 114.494 -2.14577e-06 112.888 -2.14577e-06V2ZM116.069 2.78626C116.771 3.22089 117.108 3.81663 117.108 4.708H119.108C119.108 3.15137 118.436 1.89911 117.122 1.08573L116.069 2.78626ZM117.108 4.708C117.108 5.28652 116.905 5.75474 116.456 6.17024L117.815 7.63776C118.662 6.85326 119.108 5.85748 119.108 4.708H117.108ZM116.456 6.17024C115.994 6.59803 115.469 6.804 114.832 6.804V8.804C115.97 8.804 116.981 8.40996 117.815 7.63776L116.456 6.17024ZM114.832 6.804C114.715 6.804 114.535 6.7887 114.276 6.7456L113.947 8.71839C114.265 8.7713 114.564 8.804 114.832 8.804V6.804ZM115.086 7.95686C115.17 7.59396 115.22 7.23999 115.22 6.904H113.22C113.22 7.04801 113.198 7.24604 113.137 7.50714L115.086 7.95686ZM115.22 6.904C115.22 5.92845 115.011 5.03133 114.493 4.30676L112.866 5.46924C113.068 5.75267 113.22 6.19955 113.22 6.904H115.22ZM114.506 4.32466C113.888 3.4182 112.862 3.096 111.772 3.096V5.096C112.505 5.096 112.752 5.3018 112.853 5.45134L114.506 4.32466ZM111.772 3.096C110.653 3.096 109.616 3.42403 108.685 4.06396L109.818 5.71204C110.423 5.29597 111.067 5.096 111.772 5.096V3.096ZM108.448 4.29277C107.862 5.08378 107.436 6.12097 107.13 7.34546L109.07 7.83053C109.34 6.75103 109.681 5.98822 110.055 5.48323L108.448 4.29277ZM107.13 7.34546C106.823 8.57083 106.668 9.78032 106.668 10.972H108.668C108.668 9.95567 108.8 8.90916 109.07 7.83053L107.13 7.34546ZM107.668 11.972H108.496V9.972H107.668V11.972ZM108.496 11.972C110.179 11.972 112.143 11.705 114.373 11.1904L113.923 9.24161C111.785 9.735 109.98 9.972 108.496 9.972V11.972ZM113.29 10.7305C113.468 11.0265 113.58 11.4167 113.58 11.944H115.58C115.58 11.1272 115.404 10.3655 115.005 9.7015L113.29 10.7305ZM113.58 11.944C113.58 12.2567 113.468 12.5162 113.135 12.7765L114.368 14.3515C115.139 13.7478 115.58 12.9273 115.58 11.944H113.58ZM113.135 12.7765C112.792 13.045 112.326 13.212 111.664 13.212V15.212C112.681 15.212 113.607 14.947 114.368 14.3515L113.135 12.7765ZM111.664 13.212C111.734 13.212 111.807 13.222 111.753 13.2161C111.745 13.2151 111.731 13.2135 111.709 13.211C111.667 13.206 111.603 13.1983 111.517 13.1878C111.345 13.167 111.09 13.1356 110.752 13.0936C110.074 13.0097 109.064 12.8837 107.72 12.7157L107.472 14.7003C108.816 14.8683 109.827 14.9943 110.506 15.0784C110.845 15.1204 111.102 15.152 111.275 15.1732C111.362 15.1837 111.429 15.1918 111.475 15.1973C111.498 15.2 111.518 15.2023 111.534 15.204C111.541 15.2048 111.551 15.2058 111.56 15.2067C111.564 15.2072 111.572 15.2079 111.582 15.2087C111.587 15.2091 111.595 15.2097 111.604 15.2103C111.611 15.2106 111.634 15.212 111.664 15.212V13.212ZM106.596 13.7272L106.956 32.4472L108.956 32.4088L108.596 13.6888L106.596 13.7272ZM106.956 32.428C106.956 33.0053 106.793 33.271 106.618 33.4189C106.41 33.5941 105.991 33.768 105.184 33.768V35.768C106.224 35.768 107.191 35.5519 107.908 34.9471C108.657 34.315 108.956 33.4107 108.956 32.428H106.956ZM105.184 33.768C104.694 33.768 103.981 33.6518 103.01 33.3745L102.461 35.2975C103.507 35.5962 104.425 35.768 105.184 35.768V33.768ZM103.705 34.5803C104.525 31.3257 104.924 27.1672 104.924 22.132H102.924C102.924 27.0808 102.53 31.0583 101.766 34.0917L103.705 34.5803ZM119.249 19.828L119.359 18.8341L118.249 18.7107V19.828H119.249ZM120.077 23.932L119.2 24.4123L119.205 24.4213L120.077 23.932ZM125.873 24.112L125.106 23.4698L125.104 23.4718L125.873 24.112ZM126.989 20.908V19.908H125.989V20.908H126.989ZM129.113 21.52L128.55 22.3469L128.55 22.3469L129.113 21.52ZM127.637 26.956L128.164 27.8055L128.174 27.7997L127.637 26.956ZM116.693 26.236L115.92 26.8713L115.926 26.8774L116.693 26.236ZM117.305 12.34L116.536 11.7007L116.535 11.7017L117.305 12.34ZM128.393 10.648L127.785 11.4419L127.794 11.4491L127.804 11.456L128.393 10.648ZM127.673 18.64L128.156 19.5154L128.161 19.5129L127.673 18.64ZM119.285 16.984H118.285V17.8038L119.089 17.9646L119.285 16.984ZM125.909 16.228L126.391 17.1038L126.773 16.8935L126.879 16.4705L125.909 16.228ZM125.225 12.952L125.809 12.1405L125.809 12.1405L125.225 12.952ZM119.933 13.312L119.308 12.5311L119.082 12.7117L118.988 12.9849L119.933 13.312ZM118.249 19.828C118.249 21.646 118.536 23.2013 119.2 24.4123L120.954 23.4517C120.513 22.6467 120.249 21.466 120.249 19.828H118.249ZM119.205 24.4213C119.963 25.7734 121.256 26.408 122.849 26.408V24.408C121.85 24.408 121.294 24.0586 120.949 23.4427L119.205 24.4213ZM122.849 26.408C124.391 26.408 125.701 25.8803 126.641 24.7522L125.104 23.4718C124.605 24.0717 123.898 24.408 122.849 24.408V26.408ZM126.639 24.7542C127.546 23.6718 127.989 22.3713 127.989 20.908H125.989C125.989 21.9407 125.687 22.7762 125.106 23.4698L126.639 24.7542ZM126.989 21.908C127.63 21.908 128.136 22.0654 128.55 22.3469L129.675 20.6931C128.889 20.1586 127.979 19.908 126.989 19.908V21.908ZM128.55 22.3469C128.879 22.5705 129.013 22.8262 129.013 23.212H131.013C131.013 22.1578 130.546 21.2855 129.675 20.6931L128.55 22.3469ZM129.013 23.212C129.013 24.2672 128.481 25.2331 127.1 26.1123L128.174 27.7997C129.96 26.6629 131.013 25.1328 131.013 23.212H129.013ZM127.109 26.1066C125.673 26.9988 124.186 27.432 122.633 27.432V29.432C124.583 29.432 126.433 28.8812 128.164 27.8054L127.109 26.1066ZM122.633 27.432C120.06 27.432 118.423 26.7459 117.46 25.5946L115.926 26.8774C117.411 28.6541 119.734 29.432 122.633 29.432V27.432ZM117.465 25.6007C116.447 24.3628 115.857 22.433 115.857 19.648H113.857C113.857 22.671 114.491 25.1332 115.92 26.8713L117.465 25.6007ZM115.857 19.648C115.857 16.9436 116.611 14.7427 118.074 12.9783L116.535 11.7017C114.734 13.8733 113.857 16.5444 113.857 19.648H115.857ZM118.074 12.9793C119.528 11.2301 121.435 10.352 123.893 10.352V8.352C120.879 8.352 118.394 9.46587 116.536 11.7007L118.074 12.9793ZM123.893 10.352C125.615 10.352 126.879 10.7486 127.785 11.4419L129.001 9.85412C127.65 8.81945 125.915 8.352 123.893 8.352V10.352ZM127.804 11.456C128.63 12.0589 129.121 13.0343 129.121 14.608H131.121C131.121 12.5817 130.459 10.9171 128.982 9.83999L127.804 11.456ZM129.121 14.608C129.121 15.9988 128.521 17.0203 127.185 17.7671L128.161 19.5129C130.088 18.4357 131.121 16.7692 131.121 14.608H129.121ZM127.189 17.7646C125.764 18.5518 123.972 18.972 121.769 18.972V20.972C124.222 20.972 126.366 20.5042 128.156 19.5154L127.189 17.7646ZM121.769 18.972C120.992 18.972 120.189 18.9263 119.359 18.8341L119.138 20.8219C120.037 20.9217 120.914 20.972 121.769 20.972V18.972ZM119.089 17.9646C119.878 18.1225 120.7 18.2 121.553 18.2V16.2C120.821 16.2 120.131 16.1335 119.481 16.0034L119.089 17.9646ZM121.553 18.2C123.402 18.2 125.031 17.8534 126.391 17.1038L125.426 15.3522C124.434 15.8986 123.159 16.2 121.553 16.2V18.2ZM126.879 16.4705C127.03 15.8658 127.125 15.3172 127.125 14.86H125.125C125.125 15.0748 125.075 15.4382 124.939 15.9855L126.879 16.4705ZM127.125 14.86C127.125 13.7488 126.708 12.788 125.809 12.1405L124.64 13.7635C124.941 13.98 125.125 14.2912 125.125 14.86H127.125ZM125.809 12.1405C124.98 11.5435 123.92 11.304 122.741 11.304V13.304C123.674 13.304 124.269 13.4965 124.64 13.7635L125.809 12.1405ZM122.741 11.304C121.471 11.304 120.317 11.7238 119.308 12.5311L120.557 14.0929C121.228 13.5562 121.946 13.304 122.741 13.304V11.304ZM118.988 12.9849C118.523 14.3276 118.285 15.662 118.285 16.984H120.285C120.285 15.906 120.478 14.7924 120.878 13.6391L118.988 12.9849ZM138.809 27.568L139.17 28.5006L139.993 28.1819L139.779 27.3255L138.809 27.568ZM134.381 27.424L133.751 28.2012L133.771 28.2175L133.792 28.2327L134.381 27.424ZM133.949 21.88L132.955 21.7654L132.955 21.7654L133.949 21.88ZM133.445 10.216L133.093 9.27967L132.272 9.58772L132.47 10.4423L133.445 10.216ZM137.621 10.54L136.93 11.2634L136.938 11.271L136.946 11.2785L137.621 10.54ZM138.233 14.5L139.218 14.669L139.219 14.6644L138.233 14.5ZM137.981 16.408L136.982 16.3525L138.896 16.8094L137.981 16.408ZM141.293 11.404L141.979 12.1314L141.979 12.131L141.293 11.404ZM147.269 10.504L146.505 11.1499L146.505 11.1499L147.269 10.504ZM147.341 15.184L148.109 15.8242L148.115 15.8165L148.121 15.8087L147.341 15.184ZM143.849 15.832L142.878 15.5895L142.654 16.4878L143.532 16.7807L143.849 15.832ZM139.925 16.768L139.009 16.3666L139.006 16.3716L139.925 16.768ZM138.089 22.708L137.102 22.5415L137.083 22.6573L137.091 22.7745L138.089 22.708ZM138.448 26.6354C137.825 26.8765 137.156 27 136.433 27V29C137.389 29 138.304 28.8355 139.17 28.5006L138.448 26.6354ZM136.433 27C135.743 27 135.282 26.8435 134.969 26.6153L133.792 28.2327C134.535 28.7725 135.442 29 136.433 29V27ZM135.01 26.6468C134.759 26.444 134.625 26.1876 134.625 25.768H132.625C132.625 26.7404 132.994 27.588 133.751 28.2012L135.01 26.6468ZM134.625 25.768C134.625 25.113 134.726 23.8703 134.942 21.9946L132.955 21.7654C132.74 23.6337 132.625 24.983 132.625 25.768H134.625ZM134.942 21.9946C135.162 20.0874 135.273 18.237 135.273 16.444H133.273C133.273 18.155 133.167 19.9286 132.955 21.7654L134.942 21.9946ZM135.273 16.444C135.273 14.5695 134.982 12.4145 134.419 9.9897L132.47 10.4423C133.011 12.7695 133.273 14.7665 133.273 16.444H135.273ZM133.796 11.1523C134.463 10.9021 135.1 10.784 135.713 10.784V8.784C134.837 8.784 133.962 8.95387 133.093 9.27967L133.796 11.1523ZM135.713 10.784C136.205 10.784 136.592 10.9407 136.93 11.2634L138.311 9.81664C137.593 9.1313 136.708 8.784 135.713 8.784V10.784ZM136.946 11.2785C137.264 11.5685 137.449 11.9585 137.449 12.556H139.449C139.449 11.4735 139.081 10.5195 138.295 9.80151L136.946 11.2785ZM137.449 12.556C137.449 12.9017 137.388 13.4826 137.246 14.3356L139.219 14.6644C139.365 13.7894 139.449 13.0743 139.449 12.556H137.449ZM137.247 14.331C137.101 15.18 137.009 15.8616 136.982 16.3525L138.979 16.4635C139 16.0904 139.076 15.5 139.218 14.669L137.247 14.331ZM138.896 16.8094C139.796 14.7575 140.831 13.214 141.979 12.1314L140.606 10.6766C139.21 11.994 138.037 13.7865 137.065 16.0066L138.896 16.8094ZM141.979 12.131C143.164 11.0115 144.215 10.568 145.145 10.568V8.568C143.53 8.568 142.013 9.34846 140.606 10.677L141.979 12.131ZM145.145 10.568C145.767 10.568 146.185 10.7716 146.505 11.1499L148.032 9.85806C147.296 8.98842 146.298 8.568 145.145 8.568V10.568ZM146.505 11.1499C146.855 11.5628 147.061 12.1131 147.061 12.88H149.061C149.061 11.7269 148.739 10.6932 148.032 9.85806L146.505 11.1499ZM147.061 12.88C147.061 13.64 146.869 14.1728 146.56 14.5593L148.121 15.8087C148.772 14.9952 149.061 13.992 149.061 12.88H147.061ZM146.572 14.5438C146.273 14.9027 145.95 15.048 145.541 15.048V17.048C146.571 17.048 147.448 16.6173 148.109 15.8242L146.572 14.5438ZM145.541 15.048C144.901 15.048 144.456 14.9804 144.165 14.8833L143.532 16.7807C144.105 16.9716 144.788 17.048 145.541 17.048V15.048ZM144.819 16.0745C144.906 15.7251 144.957 15.3783 144.957 15.04H142.957C142.957 15.1816 142.935 15.3629 142.878 15.5895L144.819 16.0745ZM144.957 15.04C144.957 14.4605 144.86 13.847 144.512 13.3555C144.119 12.8006 143.527 12.564 142.913 12.564V14.564C142.969 14.564 142.97 14.5738 142.943 14.5608C142.91 14.5455 142.887 14.5218 142.879 14.5105C142.876 14.5054 142.897 14.5332 142.918 14.6237C142.939 14.7146 142.957 14.8497 142.957 15.04H144.957ZM142.913 12.564C142.014 12.564 141.255 13.0262 140.642 13.683C140.035 14.3337 139.498 15.2494 139.009 16.3666L140.84 17.1694C141.287 16.1506 141.716 15.4643 142.105 15.047C142.488 14.6358 142.755 14.564 142.913 14.564V12.564ZM139.006 16.3716C138.07 18.5412 137.43 20.5989 137.102 22.5415L139.075 22.8745C139.371 21.1211 139.955 19.2188 140.843 17.1644L139.006 16.3716ZM137.091 22.7745C137.214 24.6217 137.461 26.3021 137.838 27.8105L139.779 27.3255C139.436 25.9539 139.203 24.3943 139.086 22.6415L137.091 22.7745ZM153.21 19.828L153.32 18.8341L152.21 18.7107V19.828H153.21ZM154.038 23.932L153.161 24.4123L153.166 24.4213L154.038 23.932ZM159.834 24.112L159.067 23.4698L159.065 23.4718L159.834 24.112ZM160.95 20.908V19.908H159.95V20.908H160.95ZM163.074 21.52L162.511 22.3469L162.511 22.3469L163.074 21.52ZM161.598 26.956L162.125 27.8055L162.135 27.7997L161.598 26.956ZM150.654 26.236L149.881 26.8713L149.886 26.8774L150.654 26.236ZM151.266 12.34L150.497 11.7007L150.496 11.7017L151.266 12.34ZM162.354 10.648L161.746 11.4419L161.755 11.4491L161.764 11.456L162.354 10.648ZM161.634 18.64L162.117 19.5154L162.121 19.5129L161.634 18.64ZM153.246 16.984H152.246V17.8038L153.05 17.9646L153.246 16.984ZM159.87 16.228L160.352 17.1038L160.734 16.8935L160.84 16.4705L159.87 16.228ZM159.186 12.952L159.77 12.1405L159.77 12.1405L159.186 12.952ZM153.894 13.312L153.269 12.5311L153.043 12.7117L152.949 12.9849L153.894 13.312ZM152.21 19.828C152.21 21.646 152.497 23.2013 153.161 24.4123L154.915 23.4517C154.474 22.6467 154.21 21.466 154.21 19.828H152.21ZM153.166 24.4213C153.924 25.7734 155.217 26.408 156.81 26.408V24.408C155.811 24.408 155.255 24.0586 154.91 23.4427L153.166 24.4213ZM156.81 26.408C158.352 26.408 159.662 25.8803 160.602 24.7522L159.065 23.4718C158.566 24.0717 157.859 24.408 156.81 24.408V26.408ZM160.6 24.7542C161.507 23.6718 161.95 22.3713 161.95 20.908H159.95C159.95 21.9407 159.648 22.7762 159.067 23.4698L160.6 24.7542ZM160.95 21.908C161.591 21.908 162.097 22.0654 162.511 22.3469L163.636 20.6931C162.85 20.1586 161.94 19.908 160.95 19.908V21.908ZM162.511 22.3469C162.84 22.5705 162.974 22.8262 162.974 23.212H164.974C164.974 22.1578 164.507 21.2855 163.636 20.6931L162.511 22.3469ZM162.974 23.212C162.974 24.2672 162.442 25.2331 161.061 26.1123L162.135 27.7997C163.921 26.6629 164.974 25.1328 164.974 23.212H162.974ZM161.07 26.1066C159.634 26.9988 158.147 27.432 156.594 27.432V29.432C158.544 29.432 160.394 28.8812 162.125 27.8054L161.07 26.1066ZM156.594 27.432C154.021 27.432 152.383 26.7459 151.421 25.5946L149.886 26.8774C151.372 28.6541 153.694 29.432 156.594 29.432V27.432ZM151.426 25.6007C150.408 24.3628 149.818 22.433 149.818 19.648H147.818C147.818 22.671 148.452 25.1332 149.881 26.8713L151.426 25.6007ZM149.818 19.648C149.818 16.9436 150.572 14.7427 152.035 12.9783L150.496 11.7017C148.695 13.8733 147.818 16.5444 147.818 19.648H149.818ZM152.035 12.9793C153.489 11.2301 155.396 10.352 157.854 10.352V8.352C154.84 8.352 152.355 9.46587 150.497 11.7007L152.035 12.9793ZM157.854 10.352C159.576 10.352 160.84 10.7486 161.746 11.4419L162.962 9.85412C161.611 8.81945 159.876 8.352 157.854 8.352V10.352ZM161.764 11.456C162.591 12.0589 163.082 13.0343 163.082 14.608H165.082C165.082 12.5817 164.42 10.9171 162.943 9.83999L161.764 11.456ZM163.082 14.608C163.082 15.9988 162.482 17.0203 161.146 17.7671L162.121 19.5129C164.049 18.4357 165.082 16.7692 165.082 14.608H163.082ZM161.15 17.7646C159.725 18.5518 157.933 18.972 155.73 18.972V20.972C158.182 20.972 160.327 20.5042 162.117 19.5154L161.15 17.7646ZM155.73 18.972C154.953 18.972 154.15 18.9263 153.32 18.8341L153.099 20.8219C153.998 20.9217 154.874 20.972 155.73 20.972V18.972ZM153.05 17.9646C153.839 18.1225 154.661 18.2 155.514 18.2V16.2C154.782 16.2 154.092 16.1335 153.442 16.0034L153.05 17.9646ZM155.514 18.2C157.363 18.2 158.992 17.8534 160.352 17.1038L159.387 15.3522C158.395 15.8986 157.12 16.2 155.514 16.2V18.2ZM160.84 16.4705C160.991 15.8658 161.086 15.3172 161.086 14.86H159.086C159.086 15.0748 159.036 15.4382 158.9 15.9855L160.84 16.4705ZM161.086 14.86C161.086 13.7488 160.669 12.788 159.77 12.1405L158.601 13.7635C158.902 13.98 159.086 14.2912 159.086 14.86H161.086ZM159.77 12.1405C158.941 11.5435 157.881 11.304 156.702 11.304V13.304C157.635 13.304 158.23 13.4965 158.601 13.7635L159.77 12.1405ZM156.702 11.304C155.432 11.304 154.278 11.7238 153.269 12.5311L154.518 14.0929C155.189 13.5562 155.907 13.304 156.702 13.304V11.304ZM152.949 12.9849C152.484 14.3276 152.246 15.662 152.246 16.984H154.246C154.246 15.906 154.439 14.7924 154.839 13.6391L152.949 12.9849ZM184.253 13.456L185.252 13.5014L185.253 13.4787V13.456H184.253ZM183.893 21.376L182.895 21.3306L182.893 21.3533V21.376H183.893ZM184.901 27.784L185.295 28.7031L186.132 28.3444L185.853 27.4776L184.901 27.784ZM179.933 19.612L180.928 19.7203L180.928 19.7192L179.933 19.612ZM176.009 14.932L175.257 14.2735L175.256 14.2746L176.009 14.932ZM173.453 18.748L172.562 18.2947L172.559 18.3008L173.453 18.748ZM172.229 22.204L171.238 22.0735L171.226 22.164L171.231 22.2552L172.229 22.204ZM172.949 27.568L173.301 28.5043L174.117 28.1983L173.925 27.3482L172.949 27.568ZM168.521 27.424L167.892 28.2012L167.912 28.2175L167.933 28.2327L168.521 27.424ZM168.089 21.952L169.083 22.0696L169.083 22.0681L168.089 21.952ZM167.585 10.216L167.234 9.27967L166.411 9.58842L166.612 10.4445L167.585 10.216ZM172.121 10.54L171.431 11.2634L171.439 11.271L171.447 11.2785L172.121 10.54ZM172.661 15.976L171.668 15.8592L173.543 16.4479L172.661 15.976ZM176.225 11.512L176.881 12.2669L176.888 12.2608L176.225 11.512ZM183.255 13.4106L182.895 21.3306L184.892 21.4214L185.252 13.5014L183.255 13.4106ZM182.893 21.376C182.893 23.6645 183.246 25.9038 183.95 28.0904L185.853 27.4776C185.213 25.4882 184.893 23.4555 184.893 21.376H182.893ZM184.508 26.8649C183.981 27.0907 183.35 27.216 182.597 27.216V29.216C183.573 29.216 184.478 29.0533 185.295 28.7031L184.508 26.8649ZM182.597 27.216C181.762 27.216 181.31 26.9877 181.048 26.6942C180.766 26.3795 180.537 25.8076 180.537 24.796H178.537C178.537 26.0644 178.819 27.2025 179.557 28.0278C180.315 28.8743 181.393 29.216 182.597 29.216V27.216ZM180.537 24.796C180.537 23.8236 180.664 22.1434 180.928 19.7203L178.939 19.5037C178.675 21.9286 178.537 23.7044 178.537 24.796H180.537ZM180.928 19.7192C181.19 17.2908 181.329 15.6938 181.329 15.004H179.329C179.329 15.5622 179.205 17.0372 178.939 19.5048L180.928 19.7192ZM181.329 15.004C181.329 14.2743 181.168 13.5404 180.668 12.985C180.15 12.4097 179.432 12.204 178.709 12.204V14.204C179.067 14.204 179.159 14.2983 179.181 14.323C179.221 14.3676 179.329 14.5337 179.329 15.004H181.329ZM178.709 12.204C177.453 12.204 176.295 13.0868 175.257 14.2735L176.762 15.5905C177.74 14.4732 178.382 14.204 178.709 14.204V12.204ZM175.256 14.2746C174.215 15.4684 173.317 16.8098 172.562 18.2948L174.345 19.2012C175.03 17.8542 175.836 16.6516 176.763 15.5894L175.256 14.2746ZM172.559 18.3008C171.843 19.7334 171.379 21.0009 171.238 22.0735L173.221 22.3345C173.32 21.5831 173.672 20.5466 174.348 19.1952L172.559 18.3008ZM171.231 22.2552C171.329 24.1799 171.577 26.0245 171.974 27.7878L173.925 27.3482C173.554 25.7035 173.321 23.9721 173.228 22.1528L171.231 22.2552ZM172.598 26.6317C171.945 26.8765 171.261 27 170.537 27V29C171.494 29 172.418 28.8355 173.301 28.5043L172.598 26.6317ZM170.537 27C169.879 27 169.428 26.8468 169.11 26.6153L167.933 28.2327C168.671 28.7692 169.564 29 170.537 29V27ZM169.151 26.6468C168.9 26.444 168.765 26.1876 168.765 25.768H166.765C166.765 26.7404 167.135 27.588 167.892 28.2012L169.151 26.6468ZM168.765 25.768C168.765 25.1142 168.866 23.8962 169.083 22.0696L167.096 21.8344C166.881 23.6558 166.765 24.9818 166.765 25.768H168.765ZM169.083 22.0681C169.303 20.1828 169.413 18.3201 169.413 16.48H167.413C167.413 18.2399 167.308 20.0252 167.096 21.8359L169.083 22.0681ZM169.413 16.48C169.413 14.5589 169.123 12.3918 168.559 9.98751L166.612 10.4445C167.152 12.7442 167.413 14.7531 167.413 16.48H169.413ZM167.937 11.1523C168.586 10.9086 169.283 10.784 170.033 10.784V8.784C169.056 8.784 168.121 8.94735 167.234 9.27967L167.937 11.1523ZM170.033 10.784C170.691 10.784 171.123 10.9689 171.431 11.2634L172.812 9.81664C172.064 9.10308 171.104 8.784 170.033 8.784V10.784ZM171.447 11.2785C171.793 11.594 171.949 11.9505 171.949 12.412H173.949C173.949 11.3855 173.554 10.494 172.796 9.80151L171.447 11.2785ZM171.949 12.412C171.949 13.093 171.86 14.2311 171.668 15.8592L173.655 16.0928C173.847 14.4569 173.949 13.219 173.949 12.412H171.949ZM173.543 16.4479C174.398 14.8515 175.509 13.4593 176.881 12.2669L175.57 10.7571C174.014 12.1087 172.749 13.6925 171.78 15.5041L173.543 16.4479ZM176.888 12.2608C178.232 11.0716 179.47 10.568 180.617 10.568V8.568C178.837 8.568 177.147 9.36044 175.563 10.7632L176.888 12.2608ZM180.617 10.568C181.658 10.568 182.259 10.8429 182.614 11.223C182.981 11.6158 183.253 12.2981 183.253 13.456H185.253C185.253 12.0219 184.92 10.7602 184.075 9.85696C183.218 8.94114 182.001 8.568 180.617 8.568V10.568ZM189.831 26.38L189.124 27.0871L189.831 26.38ZM190.407 12.592L191.18 13.2262L191.184 13.2219L190.407 12.592ZM201.423 10.36L200.878 11.198L200.884 11.2025L200.891 11.2069L201.423 10.36ZM201.963 15.544L202.657 16.2638L202.664 16.2575L202.67 16.2511L201.963 15.544ZM198.975 16.444L198.001 16.2191L197.762 17.2555L198.811 17.4304L198.975 16.444ZM198.399 13.42L199.195 12.8149L199.195 12.8149L198.399 13.42ZM193.179 13.816L192.491 13.09L192.328 13.2454L192.246 13.4561L193.179 13.816ZM199.191 23.932L198.396 23.3253L198.394 23.3286L199.191 23.932ZM200.235 20.872V19.872H199.235V20.872H200.235ZM202.359 21.484L202.922 20.6571L202.922 20.6571L202.359 21.484ZM200.847 26.992L201.366 27.8472L201.369 27.845L200.847 26.992ZM195.735 27.432C193.343 27.432 191.664 26.7982 190.538 25.6729L189.124 27.0871C190.735 28.6978 192.992 29.432 195.735 29.432V27.432ZM190.538 25.6729C189.413 24.5476 188.779 22.8686 188.779 20.476H186.779C186.779 23.2194 187.513 25.4764 189.124 27.0871L190.538 25.6729ZM188.779 20.476C188.779 17.5556 189.594 15.1603 191.18 13.2262L189.634 11.9578C187.716 14.2957 186.779 17.1564 186.779 20.476H188.779ZM191.184 13.2219C192.737 11.3077 194.773 10.352 197.391 10.352V8.352C194.201 8.352 191.582 9.55628 189.631 11.9621L191.184 13.2219ZM197.391 10.352C198.919 10.352 200.055 10.6624 200.878 11.198L201.969 9.522C200.727 8.71362 199.176 8.352 197.391 8.352V10.352ZM200.891 11.2069C201.61 11.6584 201.971 12.2977 201.971 13.276H203.971C203.971 11.6623 203.3 10.3576 201.955 9.51311L200.891 11.2069ZM201.971 13.276C201.971 13.8151 201.767 14.3256 201.256 14.8369L202.67 16.2511C203.503 15.4184 203.971 14.4169 203.971 13.276H201.971ZM201.269 14.8242C200.761 15.3142 200.247 15.516 199.695 15.516V17.516C200.824 17.516 201.822 17.0698 202.657 16.2638L201.269 14.8242ZM199.695 15.516C199.579 15.516 199.398 15.5007 199.14 15.4576L198.811 17.4304C199.128 17.4833 199.428 17.516 199.695 17.516V15.516ZM199.95 16.6689C200.033 16.306 200.083 15.952 200.083 15.616H198.083C198.083 15.76 198.061 15.958 198.001 16.2191L199.95 16.6689ZM200.083 15.616C200.083 14.5669 199.803 13.6138 199.195 12.8149L197.603 14.0251C197.908 14.4262 198.083 14.9371 198.083 15.616H200.083ZM199.195 12.8149C198.482 11.8764 197.367 11.52 196.131 11.52V13.52C197.008 13.52 197.404 13.7636 197.603 14.0251L199.195 12.8149ZM196.131 11.52C194.772 11.52 193.552 12.0856 192.491 13.09L193.867 14.542C194.631 13.8184 195.378 13.52 196.131 13.52V11.52ZM192.246 13.4561C191.54 15.2869 191.207 17.5185 191.207 20.116H193.207C193.207 17.6735 193.522 15.7051 194.112 14.1759L192.246 13.4561ZM191.207 20.116C191.207 21.9293 191.545 23.4719 192.381 24.5797C193.258 25.7404 194.558 26.264 196.095 26.264V24.264C195.041 24.264 194.397 23.9296 193.977 23.3743C193.518 22.7661 193.207 21.7347 193.207 20.116H191.207ZM196.095 26.264C197.714 26.264 199.081 25.7351 199.989 24.5354L198.394 23.3286C197.958 23.9049 197.261 24.264 196.095 24.264V26.264ZM199.986 24.5387C200.813 23.4556 201.235 22.2232 201.235 20.872H199.235C199.235 21.7768 198.962 22.5844 198.396 23.3253L199.986 24.5387ZM200.235 21.872C200.877 21.872 201.383 22.0294 201.797 22.3109L202.922 20.6571C202.135 20.1226 201.226 19.872 200.235 19.872V21.872ZM201.797 22.3109C202.126 22.5345 202.259 22.7902 202.259 23.176H204.259C204.259 22.1218 203.793 21.2495 202.922 20.6571L201.797 22.3109ZM202.259 23.176C202.259 24.3109 201.708 25.2926 200.325 26.139L201.369 27.845C203.202 26.7234 204.259 25.1611 204.259 23.176H202.259ZM200.329 26.1368C198.899 27.0036 197.374 27.432 195.735 27.432V29.432C197.745 29.432 199.628 28.9004 201.366 27.8472L200.329 26.1368ZM209.671 19.828L209.781 18.8341L208.671 18.7107V19.828H209.671ZM210.499 23.932L209.621 24.4123L209.626 24.4213L210.499 23.932ZM216.295 24.112L215.528 23.4698L215.526 23.4718L216.295 24.112ZM217.411 20.908V19.908H216.411V20.908H217.411ZM219.535 21.52L218.972 22.3469L218.972 22.3469L219.535 21.52ZM218.059 26.956L218.586 27.8055L218.595 27.7997L218.059 26.956ZM207.115 26.236L206.342 26.8713L206.347 26.8774L207.115 26.236ZM207.727 12.34L206.958 11.7007L206.957 11.7017L207.727 12.34ZM218.815 10.648L218.207 11.4419L218.216 11.4491L218.225 11.456L218.815 10.648ZM218.095 18.64L218.578 19.5154L218.582 19.5129L218.095 18.64ZM209.707 16.984H208.707V17.8038L209.51 17.9646L209.707 16.984ZM216.331 16.228L216.813 17.1038L217.195 16.8935L217.301 16.4705L216.331 16.228ZM215.647 12.952L216.231 12.1405L216.231 12.1405L215.647 12.952ZM210.355 13.312L209.73 12.5311L209.504 12.7117L209.41 12.9849L210.355 13.312ZM208.671 19.828C208.671 21.646 208.958 23.2013 209.621 24.4123L211.376 23.4517C210.935 22.6467 210.671 21.466 210.671 19.828H208.671ZM209.626 24.4213C210.385 25.7734 211.678 26.408 213.271 26.408V24.408C212.272 24.408 211.716 24.0586 211.371 23.4427L209.626 24.4213ZM213.271 26.408C214.813 26.408 216.123 25.8803 217.063 24.7522L215.526 23.4718C215.026 24.0717 214.32 24.408 213.271 24.408V26.408ZM217.061 24.7542C217.968 23.6718 218.411 22.3713 218.411 20.908H216.411C216.411 21.9407 216.109 22.7762 215.528 23.4698L217.061 24.7542ZM217.411 21.908C218.052 21.908 218.558 22.0654 218.972 22.3469L220.097 20.6931C219.311 20.1586 218.401 19.908 217.411 19.908V21.908ZM218.972 22.3469C219.301 22.5705 219.435 22.8262 219.435 23.212H221.435C221.435 22.1578 220.968 21.2855 220.097 20.6931L218.972 22.3469ZM219.435 23.212C219.435 24.2672 218.903 25.2331 217.522 26.1123L218.595 27.7997C220.382 26.6629 221.435 25.1328 221.435 23.212H219.435ZM217.531 26.1066C216.095 26.9988 214.608 27.432 213.055 27.432V29.432C215.005 29.432 216.855 28.8812 218.586 27.8054L217.531 26.1066ZM213.055 27.432C210.482 27.432 208.844 26.7459 207.882 25.5946L206.347 26.8774C207.833 28.6541 210.155 29.432 213.055 29.432V27.432ZM207.887 25.6007C206.869 24.3628 206.279 22.433 206.279 19.648H204.279C204.279 22.671 204.913 25.1332 206.342 26.8713L207.887 25.6007ZM206.279 19.648C206.279 16.9436 207.033 14.7427 208.496 12.9783L206.957 11.7017C205.156 13.8733 204.279 16.5444 204.279 19.648H206.279ZM208.496 12.9793C209.95 11.2301 211.857 10.352 214.315 10.352V8.352C211.301 8.352 208.816 9.46587 206.958 11.7007L208.496 12.9793ZM214.315 10.352C216.037 10.352 217.301 10.7486 218.207 11.4419L219.423 9.85412C218.072 8.81945 216.337 8.352 214.315 8.352V10.352ZM218.225 11.456C219.052 12.0589 219.543 13.0343 219.543 14.608H221.543C221.543 12.5817 220.881 10.9171 219.404 9.83999L218.225 11.456ZM219.543 14.608C219.543 15.9988 218.943 17.0203 217.607 17.7671L218.582 19.5129C220.51 18.4357 221.543 16.7692 221.543 14.608H219.543ZM217.611 17.7646C216.186 18.5518 214.394 18.972 212.191 18.972V20.972C214.643 20.972 216.788 20.5042 218.578 19.5154L217.611 17.7646ZM212.191 18.972C211.414 18.972 210.611 18.9263 209.781 18.8341L209.56 20.8219C210.458 20.9217 211.335 20.972 212.191 20.972V18.972ZM209.51 17.9646C210.3 18.1225 211.122 18.2 211.975 18.2V16.2C211.243 16.2 210.553 16.1335 209.903 16.0034L209.51 17.9646ZM211.975 18.2C213.824 18.2 215.453 17.8534 216.813 17.1038L215.848 15.3522C214.856 15.8986 213.581 16.2 211.975 16.2V18.2ZM217.301 16.4705C217.452 15.8658 217.547 15.3172 217.547 14.86H215.547C215.547 15.0748 215.497 15.4382 215.36 15.9855L217.301 16.4705ZM217.547 14.86C217.547 13.7488 217.13 12.788 216.231 12.1405L215.062 13.7635C215.363 13.98 215.547 14.2912 215.547 14.86H217.547ZM216.231 12.1405C215.402 11.5435 214.342 11.304 213.163 11.304V13.304C214.095 13.304 214.691 13.4965 215.062 13.7635L216.231 12.1405ZM213.163 11.304C211.893 11.304 210.739 11.7238 209.73 12.5311L210.979 14.0929C211.65 13.5562 212.368 13.304 213.163 13.304V11.304ZM209.41 12.9849C208.945 14.3276 208.707 15.662 208.707 16.984H210.707C210.707 15.906 210.9 14.7924 211.3 13.6391L209.41 12.9849ZM227.142 21.448L228.12 21.6575L228.34 20.6337L227.307 20.4616L227.142 21.448ZM227.898 24.544L227.223 25.2812L227.23 25.288L227.238 25.2947L227.898 24.544ZM232.758 24.796L233.244 25.6702L233.255 25.6642L232.758 24.796ZM232.686 21.34L232.138 22.1765L232.155 22.1873L232.172 22.1975L232.686 21.34ZM230.13 20.26L229.871 21.2259L229.877 21.2274L230.13 20.26ZM227.142 19.396L226.826 20.3447L226.836 20.3481L226.847 20.3513L227.142 19.396ZM224.55 17.848L223.843 18.5551L223.849 18.5611L223.855 18.567L224.55 17.848ZM226.134 11.044L226.676 11.8848L226.134 11.044ZM236.466 10.648L235.85 11.4355L235.852 11.4374L236.466 10.648ZM236.466 14.68L237.095 15.4579L237.098 15.4552L236.466 14.68ZM233.442 15.364L232.468 15.1391L232.229 16.1755L233.278 16.3504L233.442 15.364ZM232.758 12.952L232.195 13.7782L232.195 13.7782L232.758 12.952ZM228.15 12.952L227.715 12.0518L227.496 12.1577L227.35 12.352L228.15 12.952ZM228.762 15.904L228.279 16.7796L228.291 16.7861L228.303 16.7922L228.762 15.904ZM231.282 16.876L231.002 17.8357L231.015 17.8398L231.029 17.8434L231.282 16.876ZM234.306 17.812L233.97 18.7537L233.98 18.7573L233.99 18.7607L234.306 17.812ZM236.862 19.432L236.132 20.1152L236.138 20.1211L236.143 20.127L236.862 19.432ZM235.206 26.668L235.759 27.5018L235.761 27.5001L235.206 26.668ZM224.982 27.424L224.488 28.2933L224.498 28.299L224.508 28.3045L224.982 27.424ZM224.082 22.204L224.728 22.9674L224.731 22.9652L224.082 22.204ZM226.165 21.2385C226.085 21.6081 226.034 21.9609 226.034 22.276H228.034C228.034 22.1591 228.055 21.9599 228.12 21.6575L226.165 21.2385ZM226.034 22.276C226.034 23.4626 226.389 24.517 227.223 25.2812L228.574 23.8068C228.256 23.515 228.034 23.0574 228.034 22.276H226.034ZM227.238 25.2947C228.06 26.0183 229.106 26.336 230.274 26.336V24.336C229.475 24.336 228.937 24.1257 228.559 23.7933L227.238 25.2947ZM230.274 26.336C231.394 26.336 232.404 26.1371 233.244 25.6702L232.273 23.9218C231.817 24.1749 231.171 24.336 230.274 24.336V26.336ZM233.255 25.6642C234.223 25.1111 234.766 24.2243 234.766 23.104H232.766C232.766 23.4717 232.638 23.7129 232.262 23.9278L233.255 25.6642ZM234.766 23.104C234.766 21.9579 234.176 21.0675 233.201 20.4825L232.172 22.1975C232.637 22.4765 232.766 22.7621 232.766 23.104H234.766ZM233.234 20.5035C232.428 19.9755 231.471 19.5774 230.384 19.2926L229.877 21.2274C230.806 21.4706 231.552 21.7925 232.138 22.1765L233.234 20.5035ZM230.39 19.2942C229.418 19.0336 228.434 18.7491 227.438 18.4407L226.847 20.3513C227.866 20.6669 228.875 20.9584 229.871 21.2258L230.39 19.2942ZM227.459 18.4473C226.584 18.1556 225.851 17.7148 225.245 17.129L223.855 18.567C224.689 19.3732 225.685 19.9644 226.826 20.3447L227.459 18.4473ZM225.258 17.1409C224.764 16.647 224.506 16.0322 224.506 15.22H222.506C222.506 16.5198 222.945 17.657 223.843 18.5551L225.258 17.1409ZM224.506 15.22C224.506 13.9932 225.126 12.8829 226.676 11.8848L225.593 10.2032C223.639 11.4611 222.506 13.1348 222.506 15.22H224.506ZM226.676 11.8848C228.281 10.8515 229.931 10.352 231.642 10.352V8.352C229.514 8.352 227.492 8.9805 225.593 10.2032L226.676 11.8848ZM231.642 10.352C233.639 10.352 234.991 10.7635 235.85 11.4355L237.083 9.86049C235.733 8.80449 233.87 8.352 231.642 8.352V10.352ZM235.852 11.4374C236.25 11.7468 236.438 12.1242 236.438 12.664H238.438C238.438 11.5238 237.978 10.5572 237.08 9.85865L235.852 11.4374ZM236.438 12.664C236.438 13.171 236.256 13.5613 235.835 13.9048L237.098 15.4552C237.973 14.7427 238.438 13.789 238.438 12.664H236.438ZM235.838 13.9021C235.416 14.2429 234.879 14.436 234.162 14.436V16.436C235.27 16.436 236.269 16.1251 237.095 15.4579L235.838 13.9021ZM234.162 14.436C234.046 14.436 233.865 14.4207 233.607 14.3776L233.278 16.3504C233.595 16.4033 233.895 16.436 234.162 16.436V14.436ZM234.417 15.5889C234.501 15.226 234.55 14.872 234.55 14.536H232.55C232.55 14.68 232.528 14.878 232.468 15.1391L234.417 15.5889ZM234.55 14.536C234.55 13.5441 234.15 12.6908 233.322 12.1258L232.195 13.7782C232.422 13.9332 232.55 14.1359 232.55 14.536H234.55ZM233.322 12.1258C232.571 11.6137 231.629 11.412 230.598 11.412V13.412C231.392 13.412 231.89 13.5703 232.195 13.7782L233.322 12.1258ZM230.598 11.412C229.571 11.412 228.605 11.6213 227.715 12.0518L228.586 13.8522C229.184 13.5627 229.85 13.412 230.598 13.412V11.412ZM227.35 12.352C226.903 12.9484 226.718 13.6665 226.718 14.428H228.718C228.718 13.9895 228.822 13.7236 228.95 13.552L227.35 12.352ZM226.718 14.428C226.718 15.5106 227.384 16.2854 228.279 16.7796L229.245 15.0284C228.749 14.7546 228.718 14.5454 228.718 14.428H226.718ZM228.303 16.7922C229.07 17.1891 229.974 17.5349 231.002 17.8357L231.563 15.9163C230.623 15.6411 229.846 15.3388 229.222 15.0158L228.303 16.7922ZM231.029 17.8434C232.008 18.0998 232.989 18.4032 233.97 18.7537L234.643 16.8703C233.608 16.5008 232.573 16.1802 231.536 15.9086L231.029 17.8434ZM233.99 18.7607C234.847 19.0464 235.555 19.4981 236.132 20.1152L237.593 18.7488C236.778 17.8779 235.782 17.2496 234.623 16.8633L233.99 18.7607ZM236.143 20.127C236.64 20.6407 236.906 21.2943 236.906 22.168H238.906C238.906 20.8337 238.477 19.6633 237.581 18.737L236.143 20.127ZM236.906 22.168C236.906 23.5629 236.238 24.7784 234.652 25.8359L235.761 27.5001C237.775 26.1576 238.906 24.3731 238.906 22.168H236.906ZM234.654 25.8342C233.021 26.9157 231.374 27.432 229.698 27.432V29.432C231.814 29.432 233.84 28.7723 235.759 27.5018L234.654 25.8342ZM229.698 27.432C227.914 27.432 226.518 27.1151 225.457 26.5435L224.508 28.3045C225.943 29.0769 227.691 29.432 229.698 29.432V27.432ZM225.477 26.5547C224.561 26.0339 224.146 25.3193 224.146 24.292H222.146C222.146 26.0487 222.956 27.4221 224.488 28.2933L225.477 26.5547ZM224.146 24.292C224.146 23.703 224.343 23.2934 224.728 22.9674L223.436 21.4406C222.574 22.1706 222.146 23.153 222.146 24.292H224.146ZM224.731 22.9652C225.184 22.5788 225.73 22.376 226.422 22.376V20.376C225.291 20.376 224.276 20.7252 223.434 21.4428L224.731 22.9652ZM226.422 22.376C226.539 22.376 226.719 22.3913 226.978 22.4344L227.307 20.4616C226.989 20.4087 226.69 20.376 226.422 20.376V22.376Z" fill="white"/>
</svg>
